<svg width="1600" height="1100" viewBox="0 0 1600 1100" fill="none" xmlns="http://www.w3.org/2000/svg">
  <rect width="1600" height="1100" fill="#0D0D0D"/>
  <rect x="126" y="124" width="1348" height="852" rx="2" fill="#131313" stroke="#393939" stroke-width="2"/>
  <rect x="220" y="222" width="1160" height="620" fill="#191919"/>
  <rect x="286" y="280" width="480" height="380" fill="#262626"/>
  <rect x="820" y="280" width="440" height="380" fill="#1E1D1D"/>
  <rect x="288" y="690" width="960" height="96" fill="#111111"/>
  <rect x="308" y="306" width="320" height="20" fill="#C7BDAE" fill-opacity="0.55"/>
  <rect x="308" y="342" width="250" height="14" fill="#7A7A7A" fill-opacity="0.5"/>
  <rect x="840" y="316" width="180" height="180" rx="2" fill="#D8D1C5" fill-opacity="0.12"/>
  <rect x="1040" y="316" width="180" height="180" rx="2" fill="#A99671" fill-opacity="0.18"/>
  <rect x="840" y="520" width="380" height="44" fill="#C5B093" fill-opacity="0.2"/>
  <rect x="284" y="694" width="960" height="8" fill="#C7BDAE" fill-opacity="0.35"/>
  <rect x="430" y="760" width="698" height="22" fill="#2A2A2A"/>
  <rect x="430" y="802" width="530" height="16" fill="#2C2C2C"/>
  <rect x="1330" y="190" width="74" height="480" fill="#F2E9DA" fill-opacity="0.16"/>
  <rect x="1380" y="640" width="42" height="120" fill="#F2E9DA" fill-opacity="0.12"/>
</svg>